<svg xmlns="http://www.w3.org/2000/svg" xmlns:xlink="http://www.w3.org/1999/xlink" viewBox="0,0,256,256" width="64px" height="64px" fill-rule="nonzero"><g fill="#ffffff" fill-rule="nonzero" stroke="none" stroke-width="1" stroke-linecap="butt" stroke-linejoin="miter" stroke-miterlimit="10" stroke-dasharray="" stroke-dashoffset="0" font-family="none" font-weight="none" font-size="none" text-anchor="none" style="mix-blend-mode: normal"><g transform="scale(8,8)"><path d="M20,3.99805l-2,0.00391l0.00781,3.07617c0.325,-0.046 0.65419,-0.07812 0.99219,-0.07812c0.343,0 0.67781,0.03208 1.00781,0.08008zM14,4v5.10547c0.574,-0.586 1.251,-1.06588 2,-1.42188v-3.68359zM22,4v3.68359c0.749,0.356 1.426,0.83588 2,1.42188v-5.10547zM19.01367,9c-2.75557,0 -5.01367,2.24867 -5.01367,5c0,2.75133 2.25811,5 5.01367,5c2.75557,0 5.01367,-2.24867 5.01367,-5c0,-2.75133 -2.25811,-5 -5.01367,-5zM19.01367,11c1.67843,0 3.01367,1.33333 3.01367,3c0,1.66667 -1.33524,3 -3.01367,3c-1.67843,0 -3.01367,-1.33333 -3.01367,-3c0,-1.66667 1.33524,-3 3.01367,-3zM10.58984,17.97266c-1.02808,0.0024 -1.81445,0.26563 -1.81445,0.26563l-0.01953,0.00586l-5.67383,2.17773l1.98438,5.56836l4.93359,-1.88672l7.13281,3.92578l12.32617,-5.10156l-0.76562,-1.84961l-11.4375,4.73438l-7.10352,-3.91016l-3.88867,1.48828l-0.64258,-1.80078l3.79102,-1.45508c0,0 0.47772,-0.16048 1.18164,-0.16211c0.70274,-0.0016 1.5213,0.15431 2.22266,0.78711l0.00781,0.00781l0.00781,0.00586c1.0294,0.89262 1.80584,1.51742 2.88867,1.85742c1.08284,0.34 2.30811,0.38113 4.35938,0.37305l-0.00781,-2c-2.01173,0.0079 -3.06404,-0.06525 -3.75195,-0.28125c-0.68791,-0.216 -1.17513,-0.59155 -2.17773,-1.46094l0.01367,0.01367c-1.16065,-1.0472 -2.53914,-1.30511 -3.56641,-1.30273z"></path></g></g></svg>